# xmcd CD database file
#
# Track frame offsets:
#	150
#	19960
#	40197
#	56697
#	73123
#	81085
#	95177
#	116727
#	134227
#	150096
#	165775
#	184945
#	198810
#	212411
#	231006
#	242308
#	262289
#	279595
#	298303
#	318549
#	332020
#
# Disc length: 4676 seconds
#
# Revision: 1
# Processed by: cddbd v1.5.2PL0 Copyright (c) Steve Scherf et al.
# Submitted via: CDex 1.51
#
DISCID=36124215
DTITLE=Various Artist - ZM-POPBOX-3-DISC-6
DYEAR=1900
DGENRE=Blues
TTITLE0=Aloe Blacc - The Man
TTITLE1=Eminem Ft Rihanna - The Monster
TTITLE2=Katy Perry - This Is How We Do
TTITLE3=Pitbull Ft Ke$ha - Timber
TTITLE4=Annie - Tomorrow
TTITLE5=Carpenters The - Top Of The World
TTITLE6=Bonnie Tyler - Total Eclipse Of The Heart
TTITLE7=Jason Derulo - Trumpets
TTITLE8=G.R.L. - Ugly Heart
TTITLE9=Little Mermaid The - Under The Sea
TTITLE10=Avicii Ft Aloe Blacc - Wake Me Up
TTITLE11=ABBA - Waterloo
TTITLE12=Mr Probz - Waves
TTITLE13=Miley Cyrus - We Can't Stop
TTITLE14=Louis Armstrong - What A Wonderful World
TTITLE15=4 Non Blondes - What's Up
TTITLE16=Miley Cyrus - Wrecking Ball
TTITLE17=One Direction - You And I
TTITLE18=Carly Simon - You're So Vain
TTITLE19=Grease - You're The One That I Want
TTITLE20=Elton john - Your Song
EXTD=
EXTT0=
EXTT1=
EXTT2=
EXTT3=
EXTT4=
EXTT5=
EXTT6=
EXTT7=
EXTT8=
EXTT9=
EXTT10=
EXTT11=
EXTT12=
EXTT13=
EXTT14=
EXTT15=
EXTT16=
EXTT17=
EXTT18=
EXTT19=
EXTT20=
PLAYORDER=
